M48
; DRILL file {KiCad 9.0.8-9.0.8~ubuntu24.04.1} date 2026-03-31T22:58:16-0400
; FORMAT={-:-/ absolute / inch / decimal}
; #@! TF.CreationDate,2026-03-31T22:58:16-04:00
; #@! TF.GenerationSoftware,Kicad,Pcbnew,9.0.8-9.0.8~ubuntu24.04.1
; #@! TF.FileFunction,Plated,1,4,PTH
FMAT,2
INCH
; #@! TA.AperFunction,Plated,PTH,ViaDrill
T1C0.0079
; #@! TA.AperFunction,Plated,PTH,ViaDrill
T2C0.0118
; #@! TA.AperFunction,Plated,PTH,ComponentDrill
T3C0.0236
; #@! TA.AperFunction,Plated,PTH,ComponentDrill
T4C0.0360
; #@! TA.AperFunction,Plated,PTH,ComponentDrill
T5C0.0394
; #@! TA.AperFunction,Plated,PTH,ComponentDrill
T6C0.1260
%
G90
G05
T1
X4.41Y-4.47
X4.6549Y-3.7637
X4.6557Y-3.8885
X4.7163Y-3.8858
X4.7238Y-3.7897
X4.7431Y-3.7079
X4.8255Y-3.8464
X4.8345Y-3.893
X4.8349Y-4.0444
X4.922Y-3.6751
X4.9662Y-3.8464
X4.9846Y-3.5465
X5.0356Y-3.6733
X5.0368Y-4.1118
X5.0616Y-3.7306
X5.0619Y-3.9222
X5.0626Y-3.555
X5.0626Y-3.5923
X5.0646Y-4.0444
X5.0704Y-4.1126
X5.1396Y-3.8749
X5.1635Y-3.8743
X5.1696Y-3.6729
X5.2093Y-3.5665
X5.247Y-4.0456
X5.2703Y-3.9095
X5.2851Y-4.0527
X5.3173Y-4.0229
X5.3404Y-4.0229
X5.3498Y-3.8751
X5.3646Y-4.0229
X5.3746Y-3.8758
X5.3813Y-3.685
X5.3982Y-4.0535
X5.401Y-3.8129
X5.4187Y-3.659
X5.4628Y-3.8153
X5.5061Y-3.8157
X5.5179Y-3.9535
X5.5179Y-3.9929
X5.5328Y-4.0519
X5.5836Y-3.8637
X5.6175Y-3.961
X5.6691Y-4.0078
X5.8423Y-4.0078
X5.8517Y-4.1086
X5.8545Y-3.6783
X5.8545Y-3.8287
X5.9108Y-3.924
X5.9305Y-3.8362
X5.9344Y-3.6787
X5.9525Y-3.8362
X5.958Y-4.0645
X5.9659Y-3.6787
X5.975Y-3.8362
X5.9974Y-3.6783
X6.0206Y-4.0653
X6.0821Y-4.0653
X6.084Y-3.924
X6.1116Y-3.659
X6.1352Y-3.7082
X6.1391Y-3.8362
X6.1395Y-4.0275
X6.1588Y-3.8362
X6.1588Y-4.0271
X6.2159Y-3.9019
X6.2691Y-3.7259
X6.3109Y-3.7119
X6.3109Y-3.9639
X6.5053Y-3.596
T2
X3.085Y-4.4702
X3.1Y-3.0
X3.1Y-3.1
X3.1Y-3.2
X3.1Y-3.3
X3.1Y-3.4
X3.1Y-3.5
X3.1Y-3.6
X3.1Y-3.7
X3.1Y-3.8
X3.1Y-4.0
X3.1Y-4.1
X3.1Y-4.2
X3.1Y-4.3
X3.1Y-4.4
X3.1Y-4.6
X3.1Y-4.7
X3.1Y-4.8
X3.11Y-3.93
X3.115Y-3.87
X3.12Y-4.4702
X3.1341Y-3.6702
X3.1346Y-4.2702
X3.1422Y-4.1778
X3.1498Y-3.4702
X3.1498Y-4.3702
X3.1498Y-4.5702
X3.1498Y-4.7702
X3.15Y-3.07
X3.15Y-3.17
X3.15Y-3.37
X3.15Y-3.57
X3.15Y-3.77
X3.15Y-3.97
X3.15Y-4.07
X3.15Y-4.67
X3.1609Y-4.491
X3.43Y-2.99
X3.49Y-3.02
X3.53Y-3.34
X3.53Y-4.57
X3.61Y-3.16
X3.6407Y-3.7307
X3.6407Y-3.9118
X3.71Y-3.13
X3.71Y-4.8
X3.74Y-2.47
X3.775Y-2.57
X3.7935Y-3.8212
X3.81Y-2.37
X4.31Y-3.31
X4.4596Y-3.9118
X4.51Y-3.11
X4.525Y-3.7299
X4.61Y-3.07
X4.71Y-2.97
X4.81Y-2.93
X4.91Y-2.9
X5.01Y-2.87
X5.017Y-3.7788
X5.0175Y-3.8229
X5.0175Y-3.8679
X5.0546Y-3.7788
X5.0546Y-3.8229
X5.0546Y-3.8679
X5.0944Y-3.7788
X5.0944Y-3.8229
X5.0946Y-3.8679
X5.11Y-2.84
X5.21Y-2.81
X5.31Y-2.78
X5.41Y-2.74
X5.61Y-4.67
X5.71Y-4.7
X5.77Y-4.77
X6.2258Y-3.8078
X6.23Y-3.685
T4
X3.61Y-3.4106
X3.61Y-3.4696
X3.61Y-4.1696
X3.61Y-4.2287
X3.71Y-3.4106
X3.71Y-3.4696
X3.71Y-4.1696
X3.71Y-4.2287
X3.81Y-3.4106
X3.81Y-3.4696
X3.81Y-4.1696
X3.81Y-4.2287
X3.91Y-3.4106
X3.91Y-3.4696
X3.91Y-4.1696
X3.91Y-4.2287
X4.01Y-3.4106
X4.01Y-3.4696
X4.01Y-4.1696
X4.01Y-4.2287
X4.11Y-3.4106
X4.11Y-3.4696
X4.11Y-4.1696
X4.11Y-4.2287
X4.21Y-3.4106
X4.21Y-3.4696
X4.21Y-4.1696
X4.21Y-4.2287
X4.31Y-3.4106
X4.31Y-3.4696
X4.31Y-4.1696
X4.31Y-4.2287
X4.41Y-3.4106
X4.41Y-3.4696
X4.41Y-4.1696
X4.41Y-4.2287
X4.51Y-3.4106
X4.51Y-3.4696
X4.51Y-4.1696
X4.51Y-4.2287
X4.61Y-3.4106
X4.61Y-3.4696
X4.61Y-4.1696
X4.61Y-4.2287
X4.71Y-3.4106
X4.71Y-3.4696
X4.71Y-4.1696
X4.71Y-4.2287
X4.81Y-3.4106
X4.81Y-3.4696
X4.81Y-4.1696
X4.81Y-4.2287
X4.91Y-3.4106
X4.91Y-3.4696
X4.91Y-4.1696
X4.91Y-4.2287
X5.01Y-3.4106
X5.01Y-3.4696
X5.01Y-4.1696
X5.01Y-4.2287
X5.11Y-3.4106
X5.11Y-3.4696
X5.11Y-4.1696
X5.11Y-4.2287
X5.21Y-3.4106
X5.21Y-3.4696
X5.21Y-4.1696
X5.21Y-4.2287
X5.31Y-3.4106
X5.31Y-3.4696
X5.31Y-4.1696
X5.31Y-4.2287
X5.41Y-3.4106
X5.41Y-3.4696
X5.41Y-4.1696
X5.41Y-4.2287
X5.51Y-3.4106
X5.51Y-3.4696
X5.51Y-4.1696
X5.51Y-4.2287
X5.61Y-3.4106
X5.61Y-3.4696
X5.61Y-4.1696
X5.61Y-4.2287
X5.71Y-3.4106
X5.71Y-3.4696
X5.71Y-4.1696
X5.71Y-4.2287
X5.81Y-3.4106
X5.81Y-3.4696
X5.81Y-4.1696
X5.81Y-4.2287
X5.91Y-3.4106
X5.91Y-3.4696
X5.91Y-4.1696
X5.91Y-4.2287
X6.01Y-3.4106
X6.01Y-3.4696
X6.01Y-4.1696
X6.01Y-4.2287
X6.11Y-3.4106
X6.11Y-3.4696
X6.11Y-4.1696
X6.11Y-4.2287
X6.21Y-3.4106
X6.21Y-3.4696
X6.21Y-4.1696
X6.21Y-4.2287
X6.31Y-3.4106
X6.31Y-3.4696
X6.31Y-4.1696
X6.31Y-4.2287
X6.41Y-3.4106
X6.41Y-3.4696
X6.41Y-4.1696
X6.41Y-4.2287
X6.51Y-3.4106
X6.51Y-3.4696
X6.51Y-4.1696
X6.51Y-4.2287
T5
X4.56Y-2.5
X4.66Y-2.5
X4.76Y-2.5
X4.86Y-2.5
X4.96Y-2.5
X5.06Y-2.5
X5.5087Y-2.9709
X5.5087Y-3.0709
X5.6087Y-2.9709
X5.6087Y-3.0709
X5.7087Y-2.9709
X5.7087Y-3.0709
X5.77Y-4.9439
X5.8087Y-2.9709
X5.8087Y-3.0709
X5.87Y-4.9439
X5.9087Y-2.9709
X5.9087Y-3.0709
X5.97Y-4.9439
X6.0087Y-2.9709
X6.0087Y-3.0709
X6.07Y-4.9439
X6.1087Y-2.9709
X6.1087Y-3.0709
X6.17Y-4.9439
X6.2087Y-2.9709
X6.2087Y-3.0709
X6.27Y-4.9439
X6.3087Y-2.9709
X6.3087Y-3.0709
X6.4087Y-2.9709
X6.4087Y-3.0709
T6
X3.3701Y-2.0748
X3.3701Y-5.5709
X4.7244Y-2.0748
X4.7244Y-5.5709
X6.1909Y-2.0748
X6.1909Y-5.5709
T3
G00X6.3148Y-3.6678
M15
G01X6.3502Y-3.6678
M16
G05
G00X6.3148Y-4.008
M15
G01X6.3502Y-4.008
M16
G05
G00X6.4865Y-3.6678
M15
G01X6.5101Y-3.6678
M16
G05
G00X6.4865Y-4.008
M15
G01X6.5101Y-4.008
M16
G05
M30
