%TF.GenerationSoftware,KiCad,Pcbnew,9.0.8-9.0.8~ubuntu24.04.1*%
%TF.CreationDate,2026-03-31T22:58:08-04:00*%
%TF.ProjectId,centipede-32z,63656e74-6970-4656-9465-2d33327a2e6b,rev?*%
%TF.SameCoordinates,Original*%
%TF.FileFunction,Copper,L4,Bot*%
%TF.FilePolarity,Positive*%
%FSLAX46Y46*%
G04 Gerber Fmt 4.6, Leading zero omitted, Abs format (unit mm)*
G04 Created by KiCad (PCBNEW 9.0.8-9.0.8~ubuntu24.04.1) date 2026-03-31 22:58:08*
%MOMM*%
%LPD*%
G01*
G04 APERTURE LIST*
%TA.AperFunction,CastellatedPad*%
%ADD10O,1.542000X3.048000*%
%TD*%
%TA.AperFunction,CastellatedPad*%
%ADD11C,1.524000*%
%TD*%
%TA.AperFunction,ComponentPad*%
%ADD12C,7.000000*%
%TD*%
%TA.AperFunction,ConnectorPad*%
%ADD13R,6.350000X1.270000*%
%TD*%
%TA.AperFunction,ComponentPad*%
%ADD14R,1.700000X1.700000*%
%TD*%
%TA.AperFunction,ComponentPad*%
%ADD15C,1.700000*%
%TD*%
%TA.AperFunction,ComponentPad*%
%ADD16O,2.000000X1.100000*%
%TD*%
%TA.AperFunction,ComponentPad*%
%ADD17O,1.800000X1.200000*%
%TD*%
%TA.AperFunction,ViaPad*%
%ADD18C,0.450000*%
%TD*%
%TA.AperFunction,ViaPad*%
%ADD19C,0.630000*%
%TD*%
%TA.AperFunction,ViaPad*%
%ADD20C,0.400000*%
%TD*%
%TA.AperFunction,Conductor*%
%ADD21C,0.150000*%
%TD*%
%TA.AperFunction,Conductor*%
%ADD22C,0.500000*%
%TD*%
%TA.AperFunction,Conductor*%
%ADD23C,1.270000*%
%TD*%
%TA.AperFunction,Conductor*%
%ADD24C,0.254000*%
%TD*%
%TA.AperFunction,Conductor*%
%ADD25C,0.160000*%
%TD*%
G04 APERTURE END LIST*
D10*
%TO.P,GPIO1,36*%
%TO.N,GPIO32*%
X104394250Y-106544000D03*
D11*
X104394250Y-107409000D03*
%TD*%
D10*
%TO.P,GPIO18,20*%
%TO.N,GPIO18*%
X117094250Y-87494000D03*
D11*
X117094250Y-86629000D03*
%TD*%
D10*
%TO.P,GPIO38,43*%
%TO.N,GPIO38*%
X122174250Y-106544000D03*
D11*
X122174250Y-107409000D03*
%TD*%
D10*
%TO.P,GPIO44,50*%
%TO.N,GPIO44{slash}ADC4*%
X139954250Y-106544000D03*
D11*
X139954250Y-107409000D03*
%TD*%
D10*
%TO.P,GPIO0,1*%
%TO.N,GPIO0*%
X165354250Y-87494000D03*
D11*
X165354250Y-86629000D03*
%TD*%
D12*
%TO.P,REF\u002A\u002A,1*%
%TO.N,GND*%
X85600000Y-141500000D03*
%TD*%
D10*
%TO.P,GPIO15,17*%
%TO.N,GPIO15*%
X124714250Y-87494000D03*
D11*
X124714250Y-86629000D03*
%TD*%
D10*
%TO.P,VSYS1,59*%
%TO.N,VSYS*%
X162814250Y-106544000D03*
D11*
X162814250Y-107409000D03*
%TD*%
D10*
%TO.P,GND6,58*%
%TO.N,GND*%
X160274250Y-106544000D03*
D11*
X160274250Y-107409000D03*
%TD*%
D10*
%TO.P,GPIO3,4*%
%TO.N,GPIO3*%
X157734250Y-87494000D03*
D11*
X157734250Y-86629000D03*
%TD*%
D10*
%TO.P,GPIO25,28*%
%TO.N,GPIO25*%
X96774250Y-87494000D03*
D11*
X96774250Y-86629000D03*
%TD*%
D10*
%TO.P,GPIO39,44*%
%TO.N,GPIO39*%
X124714250Y-106544000D03*
D11*
X124714250Y-107409000D03*
%TD*%
D10*
%TO.P,GPIO1,2*%
%TO.N,GPIO1*%
X162814250Y-87494000D03*
D11*
X162814250Y-86629000D03*
%TD*%
D13*
%TO.P,P1,4,~{NMI}*%
%TO.N,GPIO30*%
X73831000Y-75444000D03*
%TO.P,P1,6,E*%
%TO.N,Eclock*%
X73831000Y-77984000D03*
%TO.P,P1,8,~{CART}*%
%TO.N,GPIO27*%
X73831000Y-80524000D03*
%TO.P,P1,10,D0*%
%TO.N,GPIO0*%
X73831000Y-83064000D03*
%TO.P,P1,12,D2*%
%TO.N,GPIO2*%
X73831000Y-85604000D03*
%TO.P,P1,14,D4*%
%TO.N,GPIO4*%
X73831000Y-88144000D03*
%TO.P,P1,16,D6*%
%TO.N,GPIO6*%
X73831000Y-90684000D03*
%TO.P,P1,18,R/~{W}*%
%TO.N,GPIO20*%
X73831000Y-93224000D03*
%TO.P,P1,20,A1*%
%TO.N,GPIO33*%
X73831000Y-95764000D03*
%TO.P,P1,22,A3*%
%TO.N,GPIO35*%
X73831000Y-98304000D03*
%TO.P,P1,24,A5*%
%TO.N,GPIO37*%
X73831000Y-100844000D03*
%TO.P,P1,26,A7*%
%TO.N,GPIO39*%
X73831000Y-103384000D03*
%TO.P,P1,28,A9*%
%TO.N,GPIO41{slash}ADC1*%
X73831000Y-105924000D03*
%TO.P,P1,30,A11*%
%TO.N,GPIO43{slash}ADC3*%
X73831000Y-108464000D03*
%TO.P,P1,32,~{CTS}*%
%TO.N,GPIO8*%
X73831000Y-111004000D03*
%TO.P,P1,34,GND*%
%TO.N,GND*%
X73831000Y-113544000D03*
%TO.P,P1,36,~{SCS}*%
%TO.N,GPIO9*%
X73831000Y-116084000D03*
%TO.P,P1,38,A14*%
%TO.N,GPIO46{slash}ADC6*%
X73831000Y-118624000D03*
%TO.P,P1,40,~{SLENB}*%
%TO.N,GPIO28*%
X73831000Y-121164000D03*
%TD*%
D10*
%TO.P,GPIO27,30*%
%TO.N,GPIO27*%
X91694250Y-87494000D03*
D11*
X91694250Y-86629000D03*
%TD*%
D10*
%TO.P,GPIO41,46*%
%TO.N,GPIO41{slash}ADC1*%
X129794250Y-106544000D03*
D11*
X129794250Y-107409000D03*
%TD*%
D10*
%TO.P,GPIO16,18*%
%TO.N,GPIO16*%
X122174250Y-87494000D03*
D11*
X122174250Y-86629000D03*
%TD*%
D10*
%TO.P,GND4,49*%
%TO.N,GND*%
X137414250Y-106544000D03*
D11*
X137414250Y-107409000D03*
%TD*%
D10*
%TO.P,GND4,54*%
%TO.N,GND*%
X150114250Y-106544000D03*
D11*
X150114250Y-107409000D03*
%TD*%
D10*
%TO.P,RUN1,30*%
%TO.N,RUN*%
X91694250Y-106544000D03*
D11*
X91694250Y-107409000D03*
%TD*%
D10*
%TO.P,GPIO1,53*%
%TO.N,GPIO47{slash}ADC7*%
X147574250Y-106544000D03*
D11*
X147574250Y-107409000D03*
%TD*%
D10*
%TO.P,ADC_VREF1,55*%
%TO.N,ADC_VREF*%
X152654250Y-106544000D03*
D11*
X152654250Y-107409000D03*
%TD*%
D10*
%TO.P,GPIO30,34*%
%TO.N,GPIO30*%
X99314250Y-106544000D03*
D11*
X99314250Y-107409000D03*
%TD*%
D10*
%TO.P,GPIO4,5*%
%TO.N,GPIO4*%
X155194250Y-87494000D03*
D11*
X155194250Y-86629000D03*
%TD*%
D10*
%TO.P,GPIO8,9*%
%TO.N,GPIO8*%
X145034250Y-87494000D03*
D11*
X145034250Y-86629000D03*
%TD*%
D14*
%TO.P,J6,1,Pin_1*%
%TO.N,Eclock*%
X128524000Y-63500000D03*
D15*
%TO.P,J6,2,Pin_2*%
%TO.N,GPIO21*%
X125984000Y-63500000D03*
%TO.P,J6,3,Pin_3*%
X123444000Y-63500000D03*
%TO.P,J6,4,Pin_4*%
%TO.N,GPIO22*%
X120904000Y-63500000D03*
%TO.P,J6,5,Pin_5*%
X118364000Y-63500000D03*
%TO.P,J6,6,Pin_6*%
%TO.N,Qclock*%
X115824000Y-63500000D03*
%TD*%
D10*
%TO.P,GND2,22*%
%TO.N,GND*%
X112014250Y-87494000D03*
D11*
X112014250Y-86629000D03*
%TD*%
D10*
%TO.P,GPIO7,8*%
%TO.N,GPIO7*%
X147574250Y-87494000D03*
D11*
X147574250Y-86629000D03*
%TD*%
%TO.P,GPIO1,1*%
%TO.N,GPIO31*%
X101854250Y-107409000D03*
D10*
%TO.P,GPIO1,35*%
X101854250Y-106544000D03*
%TD*%
%TO.P,GPIO13,15*%
%TO.N,GPIO13*%
X129794250Y-87494000D03*
D11*
X129794250Y-86629000D03*
%TD*%
D10*
%TO.P,GPIO19,21*%
%TO.N,GPIO19*%
X114554250Y-87494000D03*
D11*
X114554250Y-86629000D03*
%TD*%
D12*
%TO.P,REF\u002A\u002A,1*%
%TO.N,GND*%
X85600000Y-52700000D03*
%TD*%
D10*
%TO.P,GPIO43,48*%
%TO.N,GPIO43{slash}ADC3*%
X134874250Y-106544000D03*
D11*
X134874250Y-107409000D03*
%TD*%
D10*
%TO.P,GPIO34,38*%
%TO.N,GPIO34*%
X109474250Y-106544000D03*
D11*
X109474250Y-107409000D03*
%TD*%
D10*
%TO.P,GPIO1,26*%
%TO.N,GPIO23*%
X101854250Y-87494000D03*
D11*
X101854250Y-86629000D03*
%TD*%
D10*
%TO.P,GND1,12*%
%TO.N,GPIO10*%
X137414250Y-87494000D03*
D11*
X137414250Y-86629000D03*
%TD*%
D16*
%TO.P,USB1,13,SHELL*%
%TO.N,GND*%
X160846250Y-101803000D03*
D17*
X165056250Y-101803000D03*
D16*
%TO.P,USB1,14,SHELL*%
X160846250Y-93163000D03*
D17*
X165056250Y-93163000D03*
%TD*%
D10*
%TO.P,GPIO40,45*%
%TO.N,GPIO40{slash}ADC0*%
X127254250Y-106544000D03*
D11*
X127254250Y-107409000D03*
%TD*%
D10*
%TO.P,GPIO1,16*%
%TO.N,GPIO14*%
X127254250Y-87494000D03*
D11*
X127254250Y-86629000D03*
%TD*%
D12*
%TO.P,REF\u002A\u002A,1*%
%TO.N,GND*%
X120000000Y-141500000D03*
%TD*%
D10*
%TO.P,GPIO29,33*%
%TO.N,GPIO29*%
X96774250Y-106544000D03*
D11*
X96774250Y-107409000D03*
%TD*%
D14*
%TO.P,J5,1,Pin_1*%
%TO.N,GND*%
X159257148Y-125574255D03*
D15*
%TO.P,J5,2,Pin_2*%
%TO.N,3V3*%
X156717148Y-125574255D03*
%TO.P,J5,3,Pin_3*%
%TO.N,VBUS*%
X154177148Y-125574255D03*
%TO.P,J5,4,Pin_4*%
%TO.N,GPIO8*%
X151637148Y-125574255D03*
%TO.P,J5,5,Pin_5*%
%TO.N,GPIO9*%
X149097148Y-125574255D03*
%TO.P,J5,6,Pin_6*%
%TO.N,GND*%
X146557148Y-125574255D03*
%TD*%
D10*
%TO.P,GPIO36,41*%
%TO.N,GPIO36*%
X117094250Y-106544000D03*
D11*
X117094250Y-107409000D03*
%TD*%
D10*
%TO.P,GPIO28,31*%
%TO.N,GPIO28*%
X94234250Y-106544000D03*
D11*
X94234250Y-107409000D03*
%TD*%
D12*
%TO.P,REF\u002A\u002A,1*%
%TO.N,GND*%
X120000000Y-52700000D03*
%TD*%
D10*
%TO.P,3V3_EN1,56*%
%TO.N,3V3_EN*%
X155194250Y-106544000D03*
D11*
X155194250Y-107409000D03*
%TD*%
D10*
%TO.P,GPIO11,13*%
%TO.N,GPIO11*%
X134874250Y-87494000D03*
D11*
X134874250Y-86629000D03*
%TD*%
D10*
%TO.P,GPIO1,10*%
%TO.N,GPIO9*%
X142494250Y-87494000D03*
D11*
X142494250Y-86629000D03*
%TD*%
D10*
%TO.P,GPIO17,19*%
%TO.N,GPIO17*%
X119634250Y-87494000D03*
D11*
X119634250Y-86629000D03*
%TD*%
D10*
%TO.P,3V31,57*%
%TO.N,3V3*%
X157734250Y-106544000D03*
D11*
X157734250Y-107409000D03*
%TD*%
D10*
%TO.P,GPIO45,51*%
%TO.N,GPIO45{slash}ADC5*%
X142494250Y-106544000D03*
D11*
X142494250Y-107409000D03*
%TD*%
D12*
%TO.P,REF\u002A\u002A,1*%
%TO.N,GND*%
X157250000Y-52700000D03*
%TD*%
D10*
%TO.P,GPIO35,40*%
%TO.N,GPIO35*%
X114554250Y-106544000D03*
D11*
X114554250Y-107409000D03*
%TD*%
D10*
%TO.P,GPIO26,29*%
%TO.N,GPIO26*%
X94234250Y-87494000D03*
D11*
X94234250Y-86629000D03*
%TD*%
D10*
%TO.P,GPIO12,14*%
%TO.N,GPIO12*%
X132334250Y-87494000D03*
D11*
X132334250Y-86629000D03*
%TD*%
D10*
%TO.P,GPIO32,37*%
%TO.N,GPIO33*%
X106934250Y-106544000D03*
D11*
X106934250Y-107409000D03*
%TD*%
D10*
%TO.P,GPIO24,27*%
%TO.N,GPIO24*%
X99314250Y-87494000D03*
D11*
X99314250Y-86629000D03*
%TD*%
D10*
%TO.P,GPIO37,42*%
%TO.N,GPIO37*%
X119634250Y-106544000D03*
D11*
X119634250Y-107409000D03*
%TD*%
D10*
%TO.P,GPIO2,3*%
%TO.N,GPIO2*%
X160274250Y-87494000D03*
D11*
X160274250Y-86629000D03*
%TD*%
D10*
%TO.P,GPIO42,47*%
%TO.N,GPIO42{slash}ADC2*%
X132334250Y-106544000D03*
D11*
X132334250Y-107409000D03*
%TD*%
D14*
%TO.P,J4,1,Pin_1*%
%TO.N,GPIO8*%
X162780000Y-75460000D03*
D15*
%TO.P,J4,2,Pin_2*%
%TO.N,VBUS*%
X162780000Y-78000000D03*
%TO.P,J4,3,Pin_3*%
%TO.N,GPIO9*%
X160240000Y-75460000D03*
%TO.P,J4,4,Pin_4*%
%TO.N,3V3*%
X160240000Y-78000000D03*
%TO.P,J4,5,Pin_5*%
%TO.N,GPIO10*%
X157700000Y-75460000D03*
%TO.P,J4,6,Pin_6*%
%TO.N,GND*%
X157700000Y-78000000D03*
%TO.P,J4,7,Pin_7*%
%TO.N,GPIO11*%
X155160000Y-75460000D03*
%TO.P,J4,8,Pin_8*%
%TO.N,GPIO31*%
X155160000Y-78000000D03*
%TO.P,J4,9,Pin_9*%
%TO.N,GPIO12*%
X152620000Y-75460000D03*
%TO.P,J4,10,Pin_10*%
%TO.N,GPIO30*%
X152620000Y-78000000D03*
%TO.P,J4,11,Pin_11*%
%TO.N,GPIO13*%
X150080000Y-75460000D03*
%TO.P,J4,12,Pin_12*%
%TO.N,GPIO29*%
X150080000Y-78000000D03*
%TO.P,J4,13,Pin_13*%
%TO.N,GPIO14*%
X147540000Y-75460000D03*
%TO.P,J4,14,Pin_14*%
%TO.N,GPIO27*%
X147540000Y-78000000D03*
%TO.P,J4,15,Pin_15*%
%TO.N,GPIO15*%
X145000000Y-75460000D03*
%TO.P,J4,16,Pin_16*%
%TO.N,GPIO26*%
X145000000Y-78000000D03*
%TO.P,J4,17,Pin_17*%
%TO.N,GPIO16*%
X142460000Y-75460000D03*
%TO.P,J4,18,Pin_18*%
%TO.N,GPIO19*%
X142460000Y-78000000D03*
%TO.P,J4,19,Pin_19*%
%TO.N,GPIO17*%
X139920000Y-75460000D03*
%TO.P,J4,20,Pin_20*%
%TO.N,GPIO18*%
X139920000Y-78000000D03*
%TD*%
D10*
%TO.P,GPIO21,23*%
%TO.N,GPIO20*%
X109474250Y-87494000D03*
D11*
X109474250Y-86629000D03*
%TD*%
D10*
%TO.P,GPIO1,7*%
%TO.N,GPIO6*%
X150114250Y-87494000D03*
D11*
X150114250Y-86629000D03*
%TD*%
D12*
%TO.P,REF\u002A\u002A,1*%
%TO.N,GND*%
X157250000Y-141500000D03*
%TD*%
D10*
%TO.P,GPIO22,25*%
%TO.N,GPIO22*%
X104394250Y-87494000D03*
D11*
X104394250Y-86629000D03*
%TD*%
D10*
%TO.P,GPIO21,24*%
%TO.N,GPIO21*%
X106934250Y-87494000D03*
D11*
X106934250Y-86629000D03*
%TD*%
D10*
%TO.P,GPIO5,6*%
%TO.N,GPIO5*%
X152654250Y-87494000D03*
D11*
X152654250Y-86629000D03*
%TD*%
D10*
%TO.P,GPI10,11*%
%TO.N,GND*%
X139954250Y-87494000D03*
D11*
X139954250Y-86629000D03*
%TD*%
D10*
%TO.P,GPIO46,52*%
%TO.N,GPIO46{slash}ADC6*%
X145034250Y-106544000D03*
D11*
X145034250Y-107409000D03*
%TD*%
D10*
%TO.P,VBUS1,60*%
%TO.N,VBUS*%
X165354250Y-106544000D03*
D11*
X165354250Y-107409000D03*
%TD*%
D10*
%TO.P,GND3,39*%
%TO.N,GND*%
X112014250Y-106544000D03*
D11*
X112014250Y-107409000D03*
%TD*%
D18*
%TO.N,GND*%
X135058250Y-102182000D03*
X118234250Y-95599000D03*
D19*
X114934250Y-94739000D03*
D18*
X148394250Y-101799000D03*
X127934250Y-104439000D03*
D20*
X112014000Y-113538000D03*
D19*
X78359000Y-113544000D03*
X128386250Y-98245000D03*
D18*
X150734250Y-93439000D03*
X157884250Y-99109000D03*
X151534250Y-93439000D03*
D19*
X96354250Y-97059000D03*
X113274250Y-99359000D03*
D18*
X148704250Y-93429000D03*
D19*
X127431750Y-95980500D03*
D18*
X120475250Y-94181000D03*
X142684250Y-100609000D03*
X136260250Y-102182000D03*
D19*
X127444750Y-98245000D03*
D18*
X152334250Y-93428791D03*
X135646750Y-102182000D03*
X160296250Y-100683000D03*
X150134250Y-99669000D03*
X160296250Y-94283000D03*
X122806250Y-102729000D03*
D19*
X79248000Y-113544000D03*
X129402250Y-98245000D03*
D18*
X119984250Y-96259000D03*
D19*
X129397750Y-95980500D03*
X92474250Y-94759000D03*
D18*
X155234250Y-92939000D03*
X140154250Y-101419000D03*
X152924250Y-103259000D03*
X143994250Y-101799000D03*
X133274250Y-102759000D03*
X154534250Y-99669000D03*
D19*
X127444750Y-97102000D03*
D18*
X118254250Y-98769000D03*
X137114250Y-102959000D03*
D19*
X128386250Y-97102000D03*
D18*
X136684250Y-93599000D03*
X128589250Y-90297500D03*
X119794250Y-98699000D03*
D19*
X92474250Y-99359000D03*
X129397750Y-97102000D03*
D18*
X126608250Y-90080000D03*
X140534250Y-102919000D03*
X159234250Y-94639000D03*
X137186250Y-96848000D03*
X138754250Y-96909000D03*
D19*
X128386250Y-95980500D03*
X80285710Y-114072000D03*
D18*
X128787250Y-104460000D03*
X132315250Y-90589000D03*
%TO.N,RUN*%
X154484250Y-103259000D03*
X122795250Y-98883000D03*
%TO.N,1V1*%
X135883750Y-98428000D03*
X128564250Y-94756500D03*
X122568250Y-97698000D03*
X128590750Y-91245000D03*
X128571750Y-99623500D03*
X136514250Y-98446000D03*
X126140250Y-97698000D03*
X128641250Y-102726500D03*
X131153250Y-98408000D03*
X133866750Y-99302000D03*
X130545250Y-98422000D03*
%TO.N,Net-(U1-QSPI_SS)*%
X148704250Y-97249000D03*
X151334250Y-103239000D03*
X137634250Y-92939000D03*
D19*
%TO.N,GPIO4*%
X78740000Y-88900000D03*
%TO.N,GPIO5*%
X80010000Y-90678000D03*
%TO.N,GPIO6*%
X78740000Y-91440000D03*
%TO.N,GPIO7*%
X79606901Y-93224001D03*
%TO.N,GPIO10*%
X137414000Y-69596000D03*
%TO.N,GPIO11*%
X134874000Y-70612000D03*
%TO.N,GPIO12*%
X132334000Y-71374000D03*
%TO.N,GPIO13*%
X129794000Y-72136000D03*
%TO.N,GPIO14*%
X127254000Y-72898000D03*
%TO.N,GPIO15*%
X124714000Y-73660000D03*
%TO.N,GPIO16*%
X122174000Y-74422000D03*
%TO.N,GPIO17*%
X119634000Y-75438000D03*
%TO.N,GPIO18*%
X117094000Y-77978000D03*
%TO.N,GPIO19*%
X114554000Y-78994000D03*
%TO.N,GPIO20*%
X78740000Y-93980000D03*
X109474000Y-84074000D03*
%TO.N,GPIO25*%
X96774000Y-60198000D03*
%TO.N,GPIO26*%
X80004000Y-116084000D03*
X94234000Y-79502000D03*
X89662000Y-116078000D03*
X89662000Y-84836000D03*
%TO.N,GPIO27*%
X91694000Y-80264000D03*
X78740000Y-81280000D03*
%TO.N,GPIO28*%
X78740000Y-121920000D03*
X94234000Y-121920000D03*
%TO.N,GPIO30*%
X87122000Y-75946000D03*
X78740000Y-76200000D03*
%TO.N,GPIO31*%
X88646000Y-76708000D03*
X80010000Y-77978000D03*
%TO.N,GPIO32*%
X80010000Y-95758000D03*
%TO.N,GPIO33*%
X78740000Y-96520000D03*
%TO.N,GPIO34*%
X79120000Y-98298000D03*
%TO.N,GPIO35*%
X78994000Y-99822000D03*
%TO.N,GPIO0*%
X78740000Y-83820000D03*
%TO.N,GPIO1*%
X80010000Y-85598000D03*
%TO.N,GPIO2*%
X78740000Y-86360000D03*
%TO.N,GPIO3*%
X80004000Y-88144000D03*
%TO.N,GPIO39*%
X78740000Y-104140000D03*
%TO.N,GPIO38*%
X80010000Y-103378000D03*
%TO.N,GPIO37*%
X78740000Y-101600000D03*
%TO.N,GPIO36*%
X80010000Y-100838000D03*
D18*
%TO.N,VSYS*%
X156434250Y-102289000D03*
X155944250Y-102299000D03*
D19*
X158242000Y-93599000D03*
X158134250Y-96719000D03*
D18*
X155934250Y-97439000D03*
X156434250Y-97439000D03*
%TO.N,3V3*%
X134241250Y-102939000D03*
X151194250Y-97439000D03*
X151764250Y-97439000D03*
X165234250Y-91339000D03*
X125017750Y-93346500D03*
X131307250Y-93292000D03*
X127903750Y-93301500D03*
X139854250Y-96919000D03*
X150634250Y-97439000D03*
X148634250Y-104359000D03*
%TO.N,3V3_EN*%
X155834250Y-94189000D03*
D19*
%TO.N,GPIO47{slash}ADC7*%
X146558000Y-121158000D03*
X80004000Y-121164000D03*
%TO.N,GPIO44{slash}ADC4*%
X80004000Y-111004000D03*
%TO.N,GPIO45{slash}ADC5*%
X142494000Y-118618000D03*
X80010000Y-118618000D03*
%TO.N,GPIO42{slash}ADC2*%
X79618901Y-108463999D03*
%TO.N,GPIO43{slash}ADC3*%
X78740000Y-109220000D03*
%TO.N,GPIO46{slash}ADC6*%
X78740000Y-119380000D03*
X145034000Y-119380000D03*
%TO.N,GPIO41{slash}ADC1*%
X78740000Y-106680000D03*
%TO.N,GPIO40{slash}ADC0*%
X79811451Y-106116549D03*
D18*
%TO.N,USB2_D+*%
X141824250Y-98139000D03*
X140154250Y-100419000D03*
D19*
%TO.N,GPIO9*%
X78740000Y-116840000D03*
%TO.N,GPIO8*%
X78740000Y-111760000D03*
%TO.N,Eclock*%
X94996000Y-62738000D03*
X78740000Y-78740000D03*
%TO.N,Qclock*%
X95885000Y-65278000D03*
X80010000Y-80518000D03*
%TD*%
D21*
%TO.N,GPIO9*%
X149097148Y-125574255D02*
X164084000Y-110587403D01*
X161488000Y-76708000D02*
X160240000Y-75460000D01*
X164084000Y-110587403D02*
X164084000Y-104013000D01*
X164084000Y-104013000D02*
X163576000Y-103505000D01*
X163576000Y-103505000D02*
X163576000Y-90170000D01*
X163576000Y-90170000D02*
X164084000Y-89662000D01*
X164084000Y-89662000D02*
X164084000Y-77343000D01*
X164084000Y-77343000D02*
X163449000Y-76708000D01*
X163449000Y-76708000D02*
X161488000Y-76708000D01*
%TO.N,GPIO8*%
X151637148Y-125574255D02*
X166751000Y-110460403D01*
X166751000Y-110460403D02*
X166751000Y-79431000D01*
X166751000Y-79431000D02*
X162780000Y-75460000D01*
D22*
%TO.N,GND*%
X159257148Y-125574255D02*
X159257148Y-128143000D01*
X159257148Y-128143000D02*
X148717000Y-128143000D01*
X148717000Y-128143000D02*
X148717000Y-127734107D01*
X148717000Y-127734107D02*
X146557148Y-125574255D01*
D21*
%TO.N,GPIO21*%
X123444000Y-63500000D02*
X125984000Y-63500000D01*
%TO.N,GPIO22*%
X118364000Y-63500000D02*
X120904000Y-63500000D01*
D22*
%TO.N,GND*%
X112008000Y-113544000D02*
X80813710Y-113544000D01*
X83566000Y-71628000D02*
X83566000Y-110159000D01*
X84582000Y-118872000D02*
X80285710Y-114575710D01*
X150114250Y-107409000D02*
X150114250Y-119887750D01*
D23*
X73831000Y-113544000D02*
X79757710Y-113544000D01*
D22*
X112014250Y-61976250D02*
X112014250Y-86629000D01*
X141224000Y-83312000D02*
X139954250Y-84581750D01*
X80899000Y-130429000D02*
X80518000Y-130048000D01*
X85600000Y-52700000D02*
X85600000Y-59688000D01*
D21*
X112014000Y-61976000D02*
X112014250Y-61976250D01*
D22*
X85600000Y-135130000D02*
X80899000Y-130429000D01*
D21*
X159257148Y-139492852D02*
X157250000Y-141500000D01*
X159004000Y-54454000D02*
X157250000Y-52700000D01*
D23*
X79757710Y-113544000D02*
X80285710Y-114072000D01*
D22*
X80772000Y-68834000D02*
X83566000Y-71628000D01*
X157700000Y-80552000D02*
X154940000Y-83312000D01*
X159257148Y-128143000D02*
X159257148Y-139492852D01*
X120000000Y-52700000D02*
X112014000Y-60686000D01*
X80772000Y-63500000D02*
X80518000Y-63500000D01*
X80285710Y-113439290D02*
X80285710Y-114072000D01*
X85600000Y-141500000D02*
X85600000Y-135130000D01*
X112014250Y-125603000D02*
X112042995Y-125574255D01*
X81788000Y-63500000D02*
X80772000Y-63500000D01*
X112014250Y-107409000D02*
X112014250Y-125603000D01*
X112014000Y-60686000D02*
X112014000Y-61976000D01*
X150114250Y-119887750D02*
X146557148Y-123444852D01*
D24*
X157700000Y-78000000D02*
X159004000Y-76696000D01*
D22*
X80772000Y-63500000D02*
X80772000Y-68834000D01*
X84582000Y-127000000D02*
X84582000Y-118872000D01*
X81153000Y-130429000D02*
X84582000Y-127000000D01*
X112042995Y-125574255D02*
X146557148Y-125574255D01*
X83566000Y-110159000D02*
X80285710Y-113439290D01*
X146557148Y-123444852D02*
X146557148Y-125574255D01*
X139954250Y-84581750D02*
X139954250Y-86629000D01*
D24*
X159004000Y-76696000D02*
X159004000Y-54454000D01*
D22*
X80813710Y-113544000D02*
X80285710Y-114072000D01*
D21*
X159258000Y-122682000D02*
X159257148Y-122682852D01*
X112014000Y-113538000D02*
X112008000Y-113544000D01*
X80285710Y-114575710D02*
X80285710Y-114072000D01*
D22*
X85600000Y-59688000D02*
X81788000Y-63500000D01*
D21*
X80899000Y-130429000D02*
X81153000Y-130429000D01*
D22*
X112014250Y-133514250D02*
X120000000Y-141500000D01*
X154940000Y-83312000D02*
X141224000Y-83312000D01*
X157700000Y-78000000D02*
X157700000Y-80552000D01*
X120000000Y-141500000D02*
X157250000Y-141500000D01*
X112014250Y-125603000D02*
X112014250Y-133514250D01*
D21*
%TO.N,RUN*%
X150614250Y-103759000D02*
X150994250Y-104139000D01*
X125234250Y-103439000D02*
X139084250Y-103439000D01*
X154434250Y-103259000D02*
X154484250Y-103259000D01*
X141274250Y-101249000D02*
X150454250Y-101249000D01*
X122834250Y-98922000D02*
X122834250Y-101039000D01*
X122795250Y-98883000D02*
X122834250Y-98922000D01*
X122834250Y-101039000D02*
X125234250Y-103439000D01*
X150614250Y-101409000D02*
X150614250Y-103759000D01*
X153554250Y-104139000D02*
X154434250Y-103259000D01*
X150454250Y-101249000D02*
X150614250Y-101409000D01*
X150994250Y-104139000D02*
X153554250Y-104139000D01*
X139084250Y-103439000D02*
X141274250Y-101249000D01*
D24*
%TO.N,1V1*%
X128641250Y-102726500D02*
X128641250Y-99693000D01*
D22*
X130545250Y-98422000D02*
X130559250Y-98408000D01*
X130559250Y-98408000D02*
X131153250Y-98408000D01*
D24*
X128582250Y-94738500D02*
X128564250Y-94756500D01*
D22*
X133847250Y-98413000D02*
X133862250Y-98428000D01*
D24*
X128582250Y-91254000D02*
X128582250Y-94738500D01*
D22*
X136514250Y-98446000D02*
X136496250Y-98428000D01*
D24*
X128590750Y-91245000D02*
X128582250Y-91254000D01*
D22*
X133862250Y-98428000D02*
X135883750Y-98428000D01*
D24*
X133866750Y-99302000D02*
X133847250Y-99282500D01*
X126140250Y-97698000D02*
X122568250Y-97698000D01*
X128641250Y-99693000D02*
X128571750Y-99623500D01*
D22*
X131156750Y-98408000D02*
X133842250Y-98408000D01*
D24*
X133847250Y-99282500D02*
X133847250Y-98413000D01*
D22*
X133842250Y-98408000D02*
X133847250Y-98413000D01*
X136496250Y-98428000D02*
X135883750Y-98428000D01*
D21*
%TO.N,Net-(U1-QSPI_SS)*%
X152004250Y-100559000D02*
X148704250Y-97259000D01*
X148704250Y-97259000D02*
X148704250Y-97249000D01*
X152004250Y-102103000D02*
X152004250Y-100559000D01*
X151334250Y-103229000D02*
X151358250Y-103205000D01*
X151324250Y-103239000D02*
X151294250Y-103269000D01*
X151358250Y-102749000D02*
X152004250Y-102103000D01*
X151334250Y-103239000D02*
X151324250Y-103239000D01*
X137634250Y-92939000D02*
X138954250Y-94259000D01*
X151358250Y-103205000D02*
X151358250Y-102749000D01*
X138954250Y-94259000D02*
X145714250Y-94259000D01*
X151334250Y-103239000D02*
X151334250Y-103229000D01*
X145714250Y-94259000D02*
X148704250Y-97249000D01*
%TO.N,GPIO4*%
X73831000Y-88144000D02*
X77984000Y-88144000D01*
X77984000Y-88144000D02*
X78740000Y-88900000D01*
%TO.N,GPIO6*%
X73831000Y-90684000D02*
X77984000Y-90684000D01*
X77984000Y-90684000D02*
X78740000Y-91440000D01*
%TO.N,GPIO20*%
X73831000Y-93224000D02*
X77984000Y-93224000D01*
X77984000Y-93224000D02*
X78740000Y-93980000D01*
%TO.N,GPIO27*%
X77984000Y-80524000D02*
X78740000Y-81280000D01*
X73831000Y-80524000D02*
X77984000Y-80524000D01*
%TO.N,GPIO28*%
X77984000Y-121164000D02*
X78740000Y-121920000D01*
X73831000Y-121164000D02*
X77984000Y-121164000D01*
%TO.N,GPIO30*%
X73831000Y-75444000D02*
X77984000Y-75444000D01*
X77984000Y-75444000D02*
X78740000Y-76200000D01*
%TO.N,GPIO33*%
X77984000Y-95764000D02*
X78740000Y-96520000D01*
X73831000Y-95764000D02*
X77984000Y-95764000D01*
%TO.N,GPIO35*%
X77510856Y-98338856D02*
X78994000Y-99822000D01*
X73831000Y-98304000D02*
X77510856Y-98304000D01*
X77510856Y-98304000D02*
X77510856Y-98338856D01*
%TO.N,GPIO0*%
X77984000Y-83064000D02*
X78740000Y-83820000D01*
X73831000Y-83064000D02*
X77984000Y-83064000D01*
%TO.N,GPIO2*%
X73831000Y-85604000D02*
X77984000Y-85604000D01*
X77984000Y-85604000D02*
X78740000Y-86360000D01*
%TO.N,GPIO39*%
X73831000Y-103384000D02*
X77984000Y-103384000D01*
X77984000Y-103384000D02*
X78740000Y-104140000D01*
%TO.N,GPIO37*%
X77984000Y-100844000D02*
X78740000Y-101600000D01*
X73831000Y-100844000D02*
X77984000Y-100844000D01*
%TO.N,VSYS*%
X158134250Y-93706750D02*
X158242000Y-93599000D01*
X158134250Y-96719000D02*
X158134250Y-93706750D01*
D24*
%TO.N,3V3_EN*%
X155334250Y-94159000D02*
X155194250Y-94299000D01*
X155384250Y-94159000D02*
X155334250Y-94159000D01*
X155194250Y-94299000D02*
X155194250Y-105909000D01*
X155414250Y-94189000D02*
X155384250Y-94159000D01*
X155834250Y-94189000D02*
X155414250Y-94189000D01*
D21*
%TO.N,GPIO43{slash}ADC3*%
X77984000Y-108464000D02*
X78740000Y-109220000D01*
X73831000Y-108464000D02*
X77984000Y-108464000D01*
%TO.N,GPIO46{slash}ADC6*%
X77984000Y-118624000D02*
X78740000Y-119380000D01*
X73831000Y-118624000D02*
X77984000Y-118624000D01*
%TO.N,GPIO41{slash}ADC1*%
X73831000Y-105924000D02*
X77984000Y-105924000D01*
X77984000Y-105924000D02*
X78740000Y-106680000D01*
D25*
%TO.N,USB2_D+*%
X140869250Y-99704000D02*
X140869250Y-99094000D01*
X140869250Y-99094000D02*
X141824250Y-98139000D01*
X140154250Y-100419000D02*
X140869250Y-99704000D01*
D21*
%TO.N,GPIO9*%
X73831000Y-116084000D02*
X77984000Y-116084000D01*
X77984000Y-116084000D02*
X78740000Y-116840000D01*
%TO.N,GPIO8*%
X77984000Y-111004000D02*
X78740000Y-111760000D01*
X73831000Y-111004000D02*
X77984000Y-111004000D01*
%TO.N,Eclock*%
X73831000Y-77984000D02*
X77984000Y-77984000D01*
X77984000Y-77984000D02*
X78740000Y-78740000D01*
%TD*%
%TA.AperFunction,Conductor*%
%TO.N,VSYS*%
G36*
X155765523Y-96780535D02*
G01*
X156507687Y-96787604D01*
X156581994Y-96808275D01*
X156636009Y-96863329D01*
X156655264Y-96935566D01*
X156693231Y-102421826D01*
X156673785Y-102496462D01*
X156619626Y-102551376D01*
X156547100Y-102571829D01*
X155805068Y-102586099D01*
X155730198Y-102567573D01*
X155674622Y-102514094D01*
X155653231Y-102439992D01*
X155653208Y-102438301D01*
X155615158Y-96930554D01*
X155634605Y-96855922D01*
X155688764Y-96801009D01*
X155763125Y-96780533D01*
X155765523Y-96780535D01*
G37*
%TD.AperFunction*%
%TD*%
%TA.AperFunction,Conductor*%
%TO.N,GND*%
G36*
X82028121Y-60224002D02*
G01*
X82074614Y-60277658D01*
X82086000Y-60330000D01*
X82086000Y-66428000D01*
X82065998Y-66496121D01*
X82012342Y-66542614D01*
X81960000Y-66554000D01*
X79841198Y-66554000D01*
X79773077Y-66533998D01*
X79726584Y-66480342D01*
X79719491Y-66460611D01*
X79710753Y-66428000D01*
X79687392Y-66340814D01*
X79621500Y-66226686D01*
X79621498Y-66226684D01*
X79621494Y-66226679D01*
X79528320Y-66133505D01*
X79528310Y-66133497D01*
X79414190Y-66067610D01*
X79414187Y-66067609D01*
X79414186Y-66067608D01*
X79414184Y-66067607D01*
X79414183Y-66067607D01*
X79380073Y-66058467D01*
X79286892Y-66033500D01*
X79286890Y-66033500D01*
X73847500Y-66033500D01*
X73779379Y-66013498D01*
X73732886Y-65959842D01*
X73721500Y-65907500D01*
X73721500Y-60660500D01*
X73741502Y-60592379D01*
X73795158Y-60545886D01*
X73847500Y-60534500D01*
X80652113Y-60534500D01*
X80652120Y-60534500D01*
X80912116Y-60500270D01*
X81165419Y-60432398D01*
X81407697Y-60332043D01*
X81600235Y-60220881D01*
X81663235Y-60204000D01*
X81960000Y-60204000D01*
X82028121Y-60224002D01*
G37*
%TD.AperFunction*%
%TD*%
%TA.AperFunction,Conductor*%
%TO.N,GND*%
G36*
X82028121Y-127534002D02*
G01*
X82074614Y-127587658D01*
X82086000Y-127640000D01*
X82086000Y-133738000D01*
X82065998Y-133806121D01*
X82012342Y-133852614D01*
X81960000Y-133864000D01*
X81663235Y-133864000D01*
X81600235Y-133847119D01*
X81407708Y-133735963D01*
X81407703Y-133735960D01*
X81407697Y-133735957D01*
X81165419Y-133635602D01*
X80912116Y-133567730D01*
X80912114Y-133567729D01*
X80912108Y-133567728D01*
X80652121Y-133533500D01*
X80652120Y-133533500D01*
X80586892Y-133533500D01*
X73847500Y-133533500D01*
X73779379Y-133513498D01*
X73732886Y-133459842D01*
X73721500Y-133407500D01*
X73721500Y-128160500D01*
X73741502Y-128092379D01*
X73795158Y-128045886D01*
X73847500Y-128034500D01*
X79286890Y-128034500D01*
X79286892Y-128034500D01*
X79414186Y-128000392D01*
X79528314Y-127934500D01*
X79621500Y-127841314D01*
X79687392Y-127727186D01*
X79719491Y-127607388D01*
X79756443Y-127546766D01*
X79820303Y-127515745D01*
X79841198Y-127514000D01*
X81960000Y-127514000D01*
X82028121Y-127534002D01*
G37*
%TD.AperFunction*%
%TD*%
%TA.AperFunction,Conductor*%
%TO.N,GND*%
G36*
X150119408Y-105924034D02*
G01*
X150124751Y-105929377D01*
X150868226Y-107442920D01*
X150868798Y-107451856D01*
X150868706Y-107452115D01*
X150367067Y-108816522D01*
X150360996Y-108823105D01*
X150356086Y-108824185D01*
X149872414Y-108824185D01*
X149864141Y-108820758D01*
X149861433Y-108816522D01*
X149359793Y-107452115D01*
X149360154Y-107443168D01*
X149360273Y-107442920D01*
X150103749Y-105929377D01*
X150110472Y-105923462D01*
X150119408Y-105924034D01*
G37*
%TD.AperFunction*%
%TD*%
%TA.AperFunction,Conductor*%
%TO.N,GND*%
G36*
X140201280Y-85217242D02*
G01*
X140204675Y-85224648D01*
X140225952Y-85511011D01*
X140225952Y-85511013D01*
X140284134Y-85813119D01*
X140284137Y-85813132D01*
X140368678Y-86080104D01*
X140368682Y-86080114D01*
X140471153Y-86298054D01*
X140585994Y-86466683D01*
X140585998Y-86466687D01*
X140585999Y-86466689D01*
X140704490Y-86584666D01*
X140707935Y-86592931D01*
X140706736Y-86598114D01*
X139964751Y-88108622D01*
X139958028Y-88114537D01*
X139949092Y-88113965D01*
X139943749Y-88108622D01*
X139202016Y-86598629D01*
X139201444Y-86589693D01*
X139204802Y-86584675D01*
X139249899Y-86545117D01*
X139321277Y-86468171D01*
X139385640Y-86381797D01*
X139452239Y-86271130D01*
X139510033Y-86152229D01*
X139567589Y-86004345D01*
X139614066Y-85852525D01*
X139654865Y-85677527D01*
X139682803Y-85509114D01*
X139699069Y-85351491D01*
X139703826Y-85225074D01*
X139707562Y-85216937D01*
X139715518Y-85213815D01*
X140193007Y-85213815D01*
X140201280Y-85217242D01*
G37*
%TD.AperFunction*%
%TD*%
%TA.AperFunction,Conductor*%
%TO.N,3V3_EN*%
G36*
X155319001Y-104267242D02*
G01*
X155322362Y-104274278D01*
X155344332Y-104480915D01*
X155344335Y-104480933D01*
X155413390Y-104744974D01*
X155413397Y-104744997D01*
X155509766Y-104980183D01*
X155509768Y-104980188D01*
X155584045Y-105105132D01*
X155617214Y-105160927D01*
X155726769Y-105285952D01*
X155823025Y-105353972D01*
X155827804Y-105361544D01*
X155825828Y-105370278D01*
X155823870Y-105372424D01*
X155201847Y-105903513D01*
X155193330Y-105906279D01*
X155186653Y-105903513D01*
X154565384Y-105373069D01*
X154561317Y-105365091D01*
X154564083Y-105356574D01*
X154566826Y-105354221D01*
X154613765Y-105325198D01*
X154679936Y-105268712D01*
X154741499Y-105200175D01*
X154808883Y-105105139D01*
X154869137Y-104999197D01*
X154929402Y-104867978D01*
X154979350Y-104732171D01*
X155019420Y-104593594D01*
X155047675Y-104461527D01*
X155066206Y-104274362D01*
X155070431Y-104266467D01*
X155077849Y-104263815D01*
X155310728Y-104263815D01*
X155319001Y-104267242D01*
G37*
%TD.AperFunction*%
%TD*%
M02*
