%TF.GenerationSoftware,KiCad,Pcbnew,9.0.8-9.0.8~ubuntu24.04.1*%
%TF.CreationDate,2026-03-31T22:58:08-04:00*%
%TF.ProjectId,centipede-32z,63656e74-6970-4656-9465-2d33327a2e6b,rev?*%
%TF.SameCoordinates,Original*%
%TF.FileFunction,Soldermask,Top*%
%TF.FilePolarity,Negative*%
%FSLAX46Y46*%
G04 Gerber Fmt 4.6, Leading zero omitted, Abs format (unit mm)*
G04 Created by KiCad (PCBNEW 9.0.8-9.0.8~ubuntu24.04.1) date 2026-03-31 22:58:08*
%MOMM*%
%LPD*%
G01*
G04 APERTURE LIST*
G04 Aperture macros list*
%AMRoundRect*
0 Rectangle with rounded corners*
0 $1 Rounding radius*
0 $2 $3 $4 $5 $6 $7 $8 $9 X,Y pos of 4 corners*
0 Add a 4 corners polygon primitive as box body*
4,1,4,$2,$3,$4,$5,$6,$7,$8,$9,$2,$3,0*
0 Add four circle primitives for the rounded corners*
1,1,$1+$1,$2,$3*
1,1,$1+$1,$4,$5*
1,1,$1+$1,$6,$7*
1,1,$1+$1,$8,$9*
0 Add four rect primitives between the rounded corners*
20,1,$1+$1,$2,$3,$4,$5,0*
20,1,$1+$1,$4,$5,$6,$7,0*
20,1,$1+$1,$6,$7,$8,$9,0*
20,1,$1+$1,$8,$9,$2,$3,0*%
G04 Aperture macros list end*
%ADD10O,1.542000X3.048000*%
%ADD11C,1.524000*%
%ADD12C,7.000000*%
%ADD13RoundRect,0.225000X-0.250000X0.225000X-0.250000X-0.225000X0.250000X-0.225000X0.250000X0.225000X0*%
%ADD14R,2.400000X1.500000*%
%ADD15R,1.050000X1.500000*%
%ADD16RoundRect,0.135000X-0.185000X0.135000X-0.185000X-0.135000X0.185000X-0.135000X0.185000X0.135000X0*%
%ADD17RoundRect,0.159000X0.189000X-0.159000X0.189000X0.159000X-0.189000X0.159000X-0.189000X-0.159000X0*%
%ADD18RoundRect,0.219000X-0.219000X-0.294000X0.219000X-0.294000X0.219000X0.294000X-0.219000X0.294000X0*%
%ADD19RoundRect,0.244000X-0.244000X-0.269000X0.244000X-0.269000X0.244000X0.269000X-0.244000X0.269000X0*%
%ADD20R,0.600000X0.600000*%
%ADD21RoundRect,0.159000X-0.159000X-0.189000X0.159000X-0.189000X0.159000X0.189000X-0.159000X0.189000X0*%
%ADD22R,6.350000X1.270000*%
%ADD23RoundRect,0.150000X-0.400000X-0.150000X0.400000X-0.150000X0.400000X0.150000X-0.400000X0.150000X0*%
%ADD24RoundRect,0.239000X-0.239000X-0.274000X0.239000X-0.274000X0.239000X0.274000X-0.239000X0.274000X0*%
%ADD25RoundRect,0.135000X-0.135000X-0.185000X0.135000X-0.185000X0.135000X0.185000X-0.135000X0.185000X0*%
%ADD26R,1.000000X3.000000*%
%ADD27RoundRect,0.159000X0.159000X0.189000X-0.159000X0.189000X-0.159000X-0.189000X0.159000X-0.189000X0*%
%ADD28RoundRect,0.159000X-0.189000X0.159000X-0.189000X-0.159000X0.189000X-0.159000X0.189000X0.159000X0*%
%ADD29RoundRect,0.244000X0.269000X-0.244000X0.269000X0.244000X-0.269000X0.244000X-0.269000X-0.244000X0*%
%ADD30RoundRect,0.244000X0.244000X0.269000X-0.244000X0.269000X-0.244000X-0.269000X0.244000X-0.269000X0*%
%ADD31RoundRect,0.150000X-0.825000X-0.150000X0.825000X-0.150000X0.825000X0.150000X-0.825000X0.150000X0*%
%ADD32RoundRect,0.218750X-0.256250X0.218750X-0.256250X-0.218750X0.256250X-0.218750X0.256250X0.218750X0*%
%ADD33R,1.700000X1.700000*%
%ADD34C,1.700000*%
%ADD35R,1.200000X1.400000*%
%ADD36RoundRect,0.135000X0.185000X-0.135000X0.185000X0.135000X-0.185000X0.135000X-0.185000X-0.135000X0*%
%ADD37C,0.700000*%
%ADD38RoundRect,0.137500X0.362500X-0.137500X0.362500X0.137500X-0.362500X0.137500X-0.362500X-0.137500X0*%
%ADD39R,1.100000X0.300000*%
%ADD40O,2.000000X1.100000*%
%ADD41O,1.800000X1.200000*%
%ADD42RoundRect,0.225000X0.250000X-0.225000X0.250000X0.225000X-0.250000X0.225000X-0.250000X-0.225000X0*%
%ADD43R,1.200000X0.650000*%
%ADD44RoundRect,0.135000X0.135000X0.185000X-0.135000X0.185000X-0.135000X-0.185000X0.135000X-0.185000X0*%
%ADD45R,0.220000X0.665000*%
%ADD46R,0.665000X0.220000*%
%ADD47R,3.400000X3.400000*%
%ADD48R,1.600000X1.000000*%
%ADD49RoundRect,0.219000X-0.294000X0.219000X-0.294000X-0.219000X0.294000X-0.219000X0.294000X0.219000X0*%
%ADD50R,1.550000X0.600000*%
%ADD51R,2.000000X1.500000*%
%ADD52O,2.250000X0.630000*%
G04 APERTURE END LIST*
D10*
%TO.C,GPIO1*%
X104394250Y-106544000D03*
D11*
X104394250Y-107409000D03*
%TD*%
D10*
%TO.C,GPIO18*%
X117094250Y-87494000D03*
D11*
X117094250Y-86629000D03*
%TD*%
D10*
%TO.C,GPIO38*%
X122174250Y-106544000D03*
D11*
X122174250Y-107409000D03*
%TD*%
D10*
%TO.C,GPIO44*%
X139954250Y-106544000D03*
D11*
X139954250Y-107409000D03*
%TD*%
D10*
%TO.C,GPIO0*%
X165354250Y-87494000D03*
D11*
X165354250Y-86629000D03*
%TD*%
D12*
%TO.C,REF\u002A\u002A*%
X85600000Y-141500000D03*
%TD*%
D10*
%TO.C,GPIO15*%
X124714250Y-87494000D03*
D11*
X124714250Y-86629000D03*
%TD*%
D13*
%TO.C,C23*%
X108051000Y-67056000D03*
X108051000Y-68606000D03*
%TD*%
D14*
%TO.C,D4*%
X162395000Y-116150000D03*
D15*
X160020000Y-116150000D03*
%TD*%
D10*
%TO.C,VSYS1*%
X162814250Y-106544000D03*
D11*
X162814250Y-107409000D03*
%TD*%
D16*
%TO.C,R10*%
X165862000Y-60196000D03*
X165862000Y-61216000D03*
%TD*%
D17*
%TO.C,C14*%
X127934250Y-104439000D03*
X127934250Y-103439000D03*
%TD*%
D18*
%TO.C,R7*%
X142514250Y-102839000D03*
X144154250Y-102839000D03*
%TD*%
D10*
%TO.C,GND6*%
X160274250Y-106544000D03*
D11*
X160274250Y-107409000D03*
%TD*%
D19*
%TO.C,C15*%
X152924250Y-103259000D03*
X154484250Y-103259000D03*
%TD*%
D20*
%TO.C,D2*%
X142684250Y-100609000D03*
X141684250Y-100609000D03*
%TD*%
D21*
%TO.C,C16*%
X138809250Y-96919000D03*
X139809250Y-96919000D03*
%TD*%
D10*
%TO.C,GPIO3*%
X157734250Y-87494000D03*
D11*
X157734250Y-86629000D03*
%TD*%
D10*
%TO.C,GPIO25*%
X96774250Y-87494000D03*
D11*
X96774250Y-86629000D03*
%TD*%
D10*
%TO.C,GPIO39*%
X124714250Y-106544000D03*
D11*
X124714250Y-107409000D03*
%TD*%
D10*
%TO.C,GPIO1*%
X162814250Y-87494000D03*
D11*
X162814250Y-86629000D03*
%TD*%
D22*
%TO.C,P1*%
X73831000Y-72904000D03*
X73831000Y-75444000D03*
X73831000Y-77984000D03*
X73831000Y-80524000D03*
X73831000Y-83064000D03*
X73831000Y-85604000D03*
X73831000Y-88144000D03*
X73831000Y-90684000D03*
X73831000Y-93224000D03*
X73831000Y-95764000D03*
X73831000Y-98304000D03*
X73831000Y-100844000D03*
X73831000Y-103384000D03*
X73831000Y-105924000D03*
X73831000Y-108464000D03*
X73831000Y-111004000D03*
X73831000Y-113544000D03*
X73831000Y-116084000D03*
X73831000Y-118624000D03*
X73831000Y-121164000D03*
%TD*%
D23*
%TO.C,U3*%
X155834250Y-96089000D03*
X155834250Y-95139000D03*
X155834250Y-94189000D03*
X153234250Y-94189000D03*
X153234250Y-96089000D03*
%TD*%
D14*
%TO.C,D1*%
X156559250Y-103439000D03*
D15*
X158934250Y-103439000D03*
%TD*%
D24*
%TO.C,PWR_LED1*%
X163654250Y-91339000D03*
X165234250Y-91339000D03*
%TD*%
D10*
%TO.C,GPIO27*%
X91694250Y-87494000D03*
D11*
X91694250Y-86629000D03*
%TD*%
D13*
%TO.C,C22*%
X110561000Y-67056000D03*
X110561000Y-68606000D03*
%TD*%
D10*
%TO.C,GPIO41*%
X129794250Y-106544000D03*
D11*
X129794250Y-107409000D03*
%TD*%
D10*
%TO.C,GPIO16*%
X122174250Y-87494000D03*
D11*
X122174250Y-86629000D03*
%TD*%
D25*
%TO.C,R2*%
X140804250Y-99079000D03*
X141824250Y-99079000D03*
%TD*%
D10*
%TO.C,GND4*%
X137414250Y-106544000D03*
D11*
X137414250Y-107409000D03*
%TD*%
D10*
%TO.C,GND4*%
X150114250Y-106544000D03*
D11*
X150114250Y-107409000D03*
%TD*%
D26*
%TO.C,J3*%
X162860000Y-66520000D03*
X162860000Y-61480000D03*
X160320000Y-66520000D03*
X160320000Y-61480000D03*
X157780000Y-66520000D03*
X157780000Y-61480000D03*
X155240000Y-66520000D03*
X155240000Y-61480000D03*
X152700000Y-66520000D03*
X152700000Y-61480000D03*
X150160000Y-66520000D03*
X150160000Y-61480000D03*
X147620000Y-66520000D03*
X147620000Y-61480000D03*
X145080000Y-66520000D03*
X145080000Y-61480000D03*
X142540000Y-66520000D03*
X142540000Y-61480000D03*
X140000000Y-66520000D03*
X140000000Y-61480000D03*
%TD*%
D10*
%TO.C,RUN1*%
X91694250Y-106544000D03*
D11*
X91694250Y-107409000D03*
%TD*%
D10*
%TO.C,GPIO1*%
X147574250Y-106544000D03*
D11*
X147574250Y-107409000D03*
%TD*%
D27*
%TO.C,C7*%
X123806250Y-102729000D03*
X122806250Y-102729000D03*
%TD*%
D28*
%TO.C,C17*%
X118254250Y-97769000D03*
X118254250Y-98769000D03*
%TD*%
D10*
%TO.C,ADC_VREF1*%
X152654250Y-106544000D03*
D11*
X152654250Y-107409000D03*
%TD*%
D29*
%TO.C,C10*%
X136206750Y-100884000D03*
X136206750Y-99324000D03*
%TD*%
D30*
%TO.C,C9*%
X137334250Y-96799000D03*
X135774250Y-96799000D03*
%TD*%
D31*
%TO.C,U5*%
X99444000Y-60198000D03*
X99444000Y-61468000D03*
X99444000Y-62738000D03*
X99444000Y-64008000D03*
X99444000Y-65278000D03*
X99444000Y-66548000D03*
X99444000Y-67818000D03*
X104394000Y-67818000D03*
X104394000Y-66548000D03*
X104394000Y-65278000D03*
X104394000Y-64008000D03*
X104394000Y-62738000D03*
X104394000Y-61468000D03*
X104394000Y-60198000D03*
%TD*%
D10*
%TO.C,GPIO30*%
X99314250Y-106544000D03*
D11*
X99314250Y-107409000D03*
%TD*%
D28*
%TO.C,C18*%
X118234250Y-95599000D03*
X118234250Y-96599000D03*
%TD*%
D32*
%TO.C,LED25*%
X165608000Y-56616500D03*
X165608000Y-58191500D03*
%TD*%
D10*
%TO.C,GPIO4*%
X155194250Y-87494000D03*
D11*
X155194250Y-86629000D03*
%TD*%
D17*
%TO.C,C3*%
X126608250Y-91125000D03*
X126608250Y-90125000D03*
%TD*%
D10*
%TO.C,GPIO8*%
X145034250Y-87494000D03*
D11*
X145034250Y-86629000D03*
%TD*%
D33*
%TO.C,J6*%
X128524000Y-63500000D03*
D34*
X125984000Y-63500000D03*
X123444000Y-63500000D03*
X120904000Y-63500000D03*
X118364000Y-63500000D03*
X115824000Y-63500000D03*
%TD*%
D20*
%TO.C,D3*%
X140154250Y-101419000D03*
X140154250Y-100419000D03*
%TD*%
D13*
%TO.C,C21*%
X160812000Y-131051000D03*
X160812000Y-132601000D03*
%TD*%
D10*
%TO.C,GND2*%
X112014250Y-87494000D03*
D11*
X112014250Y-86629000D03*
%TD*%
D10*
%TO.C,GPIO7*%
X147574250Y-87494000D03*
D11*
X147574250Y-86629000D03*
%TD*%
%TO.C,GPIO1*%
X101854250Y-107409000D03*
D10*
X101854250Y-106544000D03*
%TD*%
%TO.C,GPIO13*%
X129794250Y-87494000D03*
D11*
X129794250Y-86629000D03*
%TD*%
D17*
%TO.C,C13*%
X128787250Y-104460000D03*
X128787250Y-103460000D03*
%TD*%
D27*
%TO.C,C4*%
X121520250Y-94181000D03*
X120520250Y-94181000D03*
%TD*%
D10*
%TO.C,GPIO19*%
X114554250Y-87494000D03*
D11*
X114554250Y-86629000D03*
%TD*%
D13*
%TO.C,C20*%
X163322000Y-131051000D03*
X163322000Y-132601000D03*
%TD*%
D12*
%TO.C,REF\u002A\u002A*%
X85600000Y-52700000D03*
%TD*%
D35*
%TO.C,X1*%
X114654250Y-96029000D03*
X114654250Y-98229000D03*
X116354250Y-98229000D03*
X116354250Y-96029000D03*
%TD*%
D10*
%TO.C,GPIO43*%
X134874250Y-106544000D03*
D11*
X134874250Y-107409000D03*
%TD*%
D10*
%TO.C,GPIO34*%
X109474250Y-106544000D03*
D11*
X109474250Y-107409000D03*
%TD*%
D36*
%TO.C,R13*%
X125984000Y-67312000D03*
X125984000Y-66292000D03*
%TD*%
D25*
%TO.C,R6*%
X134164250Y-102939000D03*
X135184250Y-102939000D03*
%TD*%
D10*
%TO.C,GPIO1*%
X101854250Y-87494000D03*
D11*
X101854250Y-86629000D03*
%TD*%
D27*
%TO.C,C19*%
X141534250Y-102919000D03*
X140534250Y-102919000D03*
%TD*%
%TO.C,C11*%
X137114250Y-102959000D03*
X136114250Y-102959000D03*
%TD*%
D36*
%TO.C,R14*%
X118364000Y-67312000D03*
X118364000Y-66292000D03*
%TD*%
D10*
%TO.C,GND1*%
X137414250Y-87494000D03*
D11*
X137414250Y-86629000D03*
%TD*%
D37*
%TO.C,USB1*%
X161376250Y-100373000D03*
X161376250Y-94593000D03*
D38*
X160296250Y-100683000D03*
X160296250Y-99883000D03*
D39*
X160296250Y-99233000D03*
X160296250Y-98733000D03*
X160296250Y-98233000D03*
X160296250Y-97733000D03*
X160296250Y-97233000D03*
X160296250Y-96733000D03*
X160296250Y-96233000D03*
X160296250Y-95733000D03*
D38*
X160296250Y-95083000D03*
X160296250Y-94283000D03*
D40*
X160846250Y-101803000D03*
D41*
X165056250Y-101803000D03*
D40*
X160846250Y-93163000D03*
D41*
X165056250Y-93163000D03*
%TD*%
D10*
%TO.C,GPIO40*%
X127254250Y-106544000D03*
D11*
X127254250Y-107409000D03*
%TD*%
D27*
%TO.C,C5*%
X120794250Y-98699000D03*
X119794250Y-98699000D03*
%TD*%
D10*
%TO.C,GPIO1*%
X127254250Y-87494000D03*
D11*
X127254250Y-86629000D03*
%TD*%
D42*
%TO.C,C24*%
X151257000Y-113805000D03*
X151257000Y-112255000D03*
%TD*%
D43*
%TO.C,Reset1*%
X154534250Y-101869000D03*
X150134250Y-101869000D03*
X154534250Y-99669000D03*
X150134250Y-99669000D03*
%TD*%
D12*
%TO.C,REF\u002A\u002A*%
X120000000Y-141500000D03*
%TD*%
D10*
%TO.C,GPIO29*%
X96774250Y-106544000D03*
D11*
X96774250Y-107409000D03*
%TD*%
D16*
%TO.C,R4*%
X159234250Y-94629000D03*
X159234250Y-95649000D03*
%TD*%
D33*
%TO.C,J5*%
X159257148Y-125574255D03*
D34*
X156717148Y-125574255D03*
X154177148Y-125574255D03*
X151637148Y-125574255D03*
X149097148Y-125574255D03*
X146557148Y-125574255D03*
%TD*%
D25*
%TO.C,R5*%
X150324250Y-103239000D03*
X151344250Y-103239000D03*
%TD*%
D10*
%TO.C,GPIO36*%
X117094250Y-106544000D03*
D11*
X117094250Y-107409000D03*
%TD*%
D25*
%TO.C,R1*%
X157874250Y-99109000D03*
X158894250Y-99109000D03*
%TD*%
D10*
%TO.C,GPIO28*%
X94234250Y-106544000D03*
D11*
X94234250Y-107409000D03*
%TD*%
D21*
%TO.C,C1*%
X131315250Y-90589000D03*
X132315250Y-90589000D03*
%TD*%
D44*
%TO.C,R12*%
X156244250Y-92939000D03*
X155224250Y-92939000D03*
%TD*%
D12*
%TO.C,REF\u002A\u002A*%
X120000000Y-52700000D03*
%TD*%
D10*
%TO.C,3V3_EN1*%
X155194250Y-106544000D03*
D11*
X155194250Y-107409000D03*
%TD*%
D45*
%TO.C,U1*%
X132183854Y-92202391D03*
X131783854Y-92202391D03*
X131383854Y-92202391D03*
X130983854Y-92202391D03*
X130583854Y-92202391D03*
X130183854Y-92202391D03*
X129783854Y-92202391D03*
X129383854Y-92202391D03*
X128983854Y-92202391D03*
X128583854Y-92202391D03*
X128183854Y-92202391D03*
X127783854Y-92202391D03*
X127383854Y-92202391D03*
X126983854Y-92202391D03*
X126583854Y-92202391D03*
X126183854Y-92202391D03*
X125783854Y-92202391D03*
X125383854Y-92202391D03*
X124983854Y-92202391D03*
X124583854Y-92202391D03*
D46*
X123476354Y-93309891D03*
X123476354Y-93709891D03*
X123476354Y-94109891D03*
X123476354Y-94509891D03*
X123476354Y-94909891D03*
X123476354Y-95309891D03*
X123476354Y-95709891D03*
X123476354Y-96109891D03*
X123476354Y-96509891D03*
X123476354Y-96909891D03*
X123476354Y-97309891D03*
X123476354Y-97709891D03*
X123476354Y-98109891D03*
X123476354Y-98509891D03*
X123476354Y-98909891D03*
X123476354Y-99309891D03*
X123476354Y-99709891D03*
X123476354Y-100109891D03*
X123476354Y-100509891D03*
X123476354Y-100909891D03*
D45*
X124583854Y-102017391D03*
X124983854Y-102017391D03*
X125383854Y-102017391D03*
X125783854Y-102017391D03*
X126183854Y-102017391D03*
X126583854Y-102017391D03*
X126983854Y-102017391D03*
X127383854Y-102017391D03*
X127783854Y-102017391D03*
X128183854Y-102017391D03*
X128583854Y-102017391D03*
X128983854Y-102017391D03*
X129383854Y-102017391D03*
X129783854Y-102017391D03*
X130183854Y-102017391D03*
X130583854Y-102017391D03*
X130983854Y-102017391D03*
X131383854Y-102017391D03*
X131783854Y-102017391D03*
X132183854Y-102017391D03*
D46*
X133291354Y-100909891D03*
X133291354Y-100509891D03*
X133291354Y-100109891D03*
X133291354Y-99709891D03*
X133291354Y-99309891D03*
X133291354Y-98909891D03*
X133291354Y-98509891D03*
X133291354Y-98109891D03*
X133291354Y-97709891D03*
X133291354Y-97309891D03*
X133291354Y-96909891D03*
X133291354Y-96509891D03*
X133291354Y-96109891D03*
X133291354Y-95709891D03*
X133291354Y-95309891D03*
X133291354Y-94909891D03*
X133291354Y-94509891D03*
X133291354Y-94109891D03*
X133291354Y-93709891D03*
X133291354Y-93309891D03*
D47*
X128383854Y-97109891D03*
%TD*%
D10*
%TO.C,GPIO11*%
X134874250Y-87494000D03*
D11*
X134874250Y-86629000D03*
%TD*%
D10*
%TO.C,GPIO1*%
X142494250Y-87494000D03*
D11*
X142494250Y-86629000D03*
%TD*%
D10*
%TO.C,GPIO17*%
X119634250Y-87494000D03*
D11*
X119634250Y-86629000D03*
%TD*%
D10*
%TO.C,3V31*%
X157734250Y-106544000D03*
D11*
X157734250Y-107409000D03*
%TD*%
D29*
%TO.C,C40*%
X152034250Y-96599000D03*
X152034250Y-95039000D03*
%TD*%
D10*
%TO.C,GPIO45*%
X142494250Y-106544000D03*
D11*
X142494250Y-107409000D03*
%TD*%
D43*
%TO.C,Boot1*%
X143994250Y-99599000D03*
X148394250Y-99599000D03*
X143994250Y-101799000D03*
X148394250Y-101799000D03*
%TD*%
D12*
%TO.C,REF\u002A\u002A*%
X157250000Y-52700000D03*
%TD*%
D42*
%TO.C,C25*%
X155321000Y-113805000D03*
X155321000Y-112255000D03*
%TD*%
D10*
%TO.C,GPIO35*%
X114554250Y-106544000D03*
D11*
X114554250Y-107409000D03*
%TD*%
D10*
%TO.C,GPIO26*%
X94234250Y-87494000D03*
D11*
X94234250Y-86629000D03*
%TD*%
D25*
%TO.C,R3*%
X140814250Y-98139000D03*
X141834250Y-98139000D03*
%TD*%
D29*
%TO.C,C39*%
X158134250Y-96719000D03*
X158134250Y-95159000D03*
%TD*%
D10*
%TO.C,GPIO12*%
X132334250Y-87494000D03*
D11*
X132334250Y-86629000D03*
%TD*%
D10*
%TO.C,GPIO32*%
X106934250Y-106544000D03*
D11*
X106934250Y-107409000D03*
%TD*%
D10*
%TO.C,GPIO24*%
X99314250Y-87494000D03*
D11*
X99314250Y-86629000D03*
%TD*%
D48*
%TO.C,L1*%
X138234250Y-101039000D03*
X138234250Y-99039000D03*
%TD*%
D16*
%TO.C,R9*%
X165862000Y-62990000D03*
X165862000Y-64010000D03*
%TD*%
D44*
%TO.C,R11*%
X158244000Y-93599000D03*
X157224000Y-93599000D03*
%TD*%
D18*
%TO.C,R28*%
X119565250Y-97610000D03*
X121205250Y-97610000D03*
%TD*%
D10*
%TO.C,GPIO37*%
X119634250Y-106544000D03*
D11*
X119634250Y-107409000D03*
%TD*%
D10*
%TO.C,GPIO2*%
X160274250Y-87494000D03*
D11*
X160274250Y-86629000D03*
%TD*%
D17*
%TO.C,C2*%
X128589250Y-91277500D03*
X128589250Y-90277500D03*
%TD*%
D10*
%TO.C,GPIO42*%
X132334250Y-106544000D03*
D11*
X132334250Y-107409000D03*
%TD*%
D14*
%TO.C,D5*%
X162395000Y-113030000D03*
D15*
X160020000Y-113030000D03*
%TD*%
D33*
%TO.C,J4*%
X162780000Y-75460000D03*
D34*
X162780000Y-78000000D03*
X160240000Y-75460000D03*
X160240000Y-78000000D03*
X157700000Y-75460000D03*
X157700000Y-78000000D03*
X155160000Y-75460000D03*
X155160000Y-78000000D03*
X152620000Y-75460000D03*
X152620000Y-78000000D03*
X150080000Y-75460000D03*
X150080000Y-78000000D03*
X147540000Y-75460000D03*
X147540000Y-78000000D03*
X145000000Y-75460000D03*
X145000000Y-78000000D03*
X142460000Y-75460000D03*
X142460000Y-78000000D03*
X139920000Y-75460000D03*
X139920000Y-78000000D03*
%TD*%
D10*
%TO.C,GPIO21*%
X109474250Y-87494000D03*
D11*
X109474250Y-86629000D03*
%TD*%
D10*
%TO.C,GPIO1*%
X150114250Y-87494000D03*
D11*
X150114250Y-86629000D03*
%TD*%
D29*
%TO.C,C12*%
X135007250Y-100878000D03*
X135007250Y-99318000D03*
%TD*%
%TO.C,C37*%
X156934250Y-96399000D03*
X156934250Y-94839000D03*
%TD*%
D27*
%TO.C,C8*%
X136684250Y-93599000D03*
X135684250Y-93599000D03*
%TD*%
D29*
%TO.C,C38*%
X150734250Y-96539000D03*
X150734250Y-94979000D03*
%TD*%
D27*
%TO.C,C6*%
X120984250Y-96259000D03*
X119984250Y-96259000D03*
%TD*%
D49*
%TO.C,R8*%
X148634250Y-102719000D03*
X148634250Y-104359000D03*
%TD*%
D12*
%TO.C,REF\u002A\u002A*%
X157250000Y-141500000D03*
%TD*%
D10*
%TO.C,GPIO22*%
X104394250Y-87494000D03*
D11*
X104394250Y-86629000D03*
%TD*%
D10*
%TO.C,GPIO21*%
X106934250Y-87494000D03*
D11*
X106934250Y-86629000D03*
%TD*%
D10*
%TO.C,GPIO5*%
X152654250Y-87494000D03*
D11*
X152654250Y-86629000D03*
%TD*%
D50*
%TO.C,U2*%
X96354250Y-96059000D03*
X96354250Y-97059000D03*
X96354250Y-98059000D03*
D51*
X92474250Y-99359000D03*
X92474250Y-94759000D03*
%TD*%
D10*
%TO.C,GPI10*%
X139954250Y-87494000D03*
D11*
X139954250Y-86629000D03*
%TD*%
D10*
%TO.C,GPIO46*%
X145034250Y-106544000D03*
D11*
X145034250Y-107409000D03*
%TD*%
D10*
%TO.C,VBUS1*%
X165354250Y-106544000D03*
D11*
X165354250Y-107409000D03*
%TD*%
D52*
%TO.C,U4*%
X148704250Y-97249000D03*
X148704250Y-95979000D03*
X148704250Y-94699000D03*
X148704250Y-93429000D03*
X141644250Y-93429000D03*
X141644250Y-94699000D03*
X141644250Y-95979000D03*
X141644250Y-97249000D03*
%TD*%
D27*
%TO.C,C36*%
X133274250Y-102759000D03*
X132274250Y-102759000D03*
%TD*%
D10*
%TO.C,GND3*%
X112014250Y-106544000D03*
D11*
X112014250Y-107409000D03*
%TD*%
G36*
X82032598Y-59183301D02*
G01*
X82076750Y-59238898D01*
X82086000Y-59286284D01*
X82086000Y-66428000D01*
X82065998Y-66496121D01*
X82012342Y-66542614D01*
X81960000Y-66554000D01*
X79293191Y-66554000D01*
X79225077Y-66534000D01*
X73723057Y-66534000D01*
X73718947Y-66533933D01*
X73669949Y-66532334D01*
X73641447Y-66528107D01*
X73544853Y-66502224D01*
X73514465Y-66489637D01*
X73429670Y-66440681D01*
X73403575Y-66420657D01*
X73334342Y-66351424D01*
X73314318Y-66325329D01*
X73265362Y-66240534D01*
X73252775Y-66210146D01*
X73226892Y-66113552D01*
X73222665Y-66085047D01*
X73221067Y-66036050D01*
X73221000Y-66031943D01*
X73221000Y-60536056D01*
X73221067Y-60531949D01*
X73222665Y-60482952D01*
X73226892Y-60454447D01*
X73252775Y-60357853D01*
X73265362Y-60327465D01*
X73314318Y-60242670D01*
X73334342Y-60216575D01*
X73403575Y-60147342D01*
X73429670Y-60127318D01*
X73514465Y-60078362D01*
X73544853Y-60065775D01*
X73641447Y-60039892D01*
X73669952Y-60035665D01*
X73718950Y-60034067D01*
X73723057Y-60034000D01*
X80520989Y-60034000D01*
X80638866Y-60031688D01*
X80871714Y-59994808D01*
X81095908Y-59921963D01*
X81095914Y-59921960D01*
X81305963Y-59814935D01*
X81496680Y-59676370D01*
X81663370Y-59509680D01*
X81801935Y-59318963D01*
X81847733Y-59229081D01*
X81896481Y-59177466D01*
X81965396Y-59160400D01*
X82032598Y-59183301D01*
G37*
G36*
X77963121Y-70554002D02*
G01*
X78009614Y-70607658D01*
X78021000Y-70660000D01*
X78021000Y-123408000D01*
X78000998Y-123476121D01*
X77947342Y-123522614D01*
X77895000Y-123534000D01*
X71272367Y-123534000D01*
X71269623Y-123533970D01*
X71171489Y-123531832D01*
X71152353Y-123529948D01*
X70957709Y-123495626D01*
X70936495Y-123489941D01*
X70752078Y-123422819D01*
X70732172Y-123413537D01*
X70562208Y-123315408D01*
X70544217Y-123302811D01*
X70393872Y-123176658D01*
X70378341Y-123161127D01*
X70252188Y-123010782D01*
X70239591Y-122992791D01*
X70141462Y-122822827D01*
X70132180Y-122802921D01*
X70065058Y-122618504D01*
X70059373Y-122597290D01*
X70025051Y-122402646D01*
X70023167Y-122383509D01*
X70021030Y-122285376D01*
X70021000Y-122282633D01*
X70021000Y-71785366D01*
X70021030Y-71782623D01*
X70023167Y-71684490D01*
X70025051Y-71665353D01*
X70059373Y-71470709D01*
X70065058Y-71449495D01*
X70132180Y-71265078D01*
X70141462Y-71245172D01*
X70239591Y-71075208D01*
X70252188Y-71057217D01*
X70378341Y-70906872D01*
X70393872Y-70891341D01*
X70544217Y-70765188D01*
X70562208Y-70752591D01*
X70732172Y-70654462D01*
X70752078Y-70645180D01*
X70936495Y-70578058D01*
X70957709Y-70572373D01*
X71152353Y-70538051D01*
X71171490Y-70536167D01*
X71269624Y-70534030D01*
X71272367Y-70534000D01*
X77895000Y-70534000D01*
X77963121Y-70554002D01*
G37*
G36*
X82028121Y-127534002D02*
G01*
X82074614Y-127587658D01*
X82086000Y-127640000D01*
X82086000Y-134781715D01*
X82065998Y-134849836D01*
X82012342Y-134896329D01*
X81942068Y-134906433D01*
X81877488Y-134876939D01*
X81847733Y-134838918D01*
X81801936Y-134749037D01*
X81663370Y-134558319D01*
X81496680Y-134391629D01*
X81305963Y-134253064D01*
X81095914Y-134146039D01*
X81095908Y-134146036D01*
X80871712Y-134073191D01*
X80871716Y-134073191D01*
X80638864Y-134036311D01*
X80638867Y-134036311D01*
X80520989Y-134034000D01*
X73723057Y-134034000D01*
X73718947Y-134033933D01*
X73669949Y-134032334D01*
X73641447Y-134028107D01*
X73544853Y-134002224D01*
X73514465Y-133989637D01*
X73429670Y-133940681D01*
X73403575Y-133920657D01*
X73334342Y-133851424D01*
X73314318Y-133825329D01*
X73265362Y-133740534D01*
X73252775Y-133710146D01*
X73226892Y-133613552D01*
X73222665Y-133585047D01*
X73221067Y-133536050D01*
X73221000Y-133531943D01*
X73221000Y-128036056D01*
X73221067Y-128031949D01*
X73222665Y-127982952D01*
X73226892Y-127954447D01*
X73252775Y-127857853D01*
X73265362Y-127827465D01*
X73314318Y-127742670D01*
X73334342Y-127716575D01*
X73403575Y-127647342D01*
X73429670Y-127627318D01*
X73514465Y-127578362D01*
X73544853Y-127565775D01*
X73641447Y-127539892D01*
X73669952Y-127535665D01*
X73718950Y-127534067D01*
X73723057Y-127534000D01*
X79235054Y-127534000D01*
X79266408Y-127516879D01*
X79293191Y-127514000D01*
X81960000Y-127514000D01*
X82028121Y-127534002D01*
G37*
M02*
